<?xml version="1.0" encoding="UTF-8" standalone="no"?>
<!DOCTYPE svg PUBLIC "-//W3C//DTD SVG 1.1//EN" "http://www.w3.org/Graphics/SVG/1.1/DTD/svg11.dtd">
<!-- Created with Vectornator (http://vectornator.io/) -->
<svg height="100%" stroke-miterlimit="10" style="fill-rule:nonzero;clip-rule:evenodd;stroke-linecap:round;stroke-linejoin:round;" version="1.1" viewBox="0 0 1024 1024" width="100%" xml:space="preserve" xmlns="http://www.w3.org/2000/svg" xmlns:vectornator="http://vectornator.io" xmlns:xlink="http://www.w3.org/1999/xlink">
<defs/>
<path d="M0 0L1024 0L1024 1024L0 1024L0 0Z" fill="#000000" fill-opacity="0" fill-rule="nonzero" opacity="1" stroke="none" vectornator:artboardBackground="true"/>
<g id="Arrows" vectornator:layerName="Arrows">
<g opacity="1" vectornator:layerName="Группа 1">
<g opacity="1" vectornator:layerName="Группа 2">
<path d="M695.969 754.054C654.002 792.589 596.025 816.424 531.986 816.424C467.947 816.424 409.97 792.589 368.004 754.054" fill="none" opacity="1" stroke="#50778f" stroke-linecap="round" stroke-linejoin="round" stroke-width="40" vectornator:layerName="Овал 3"/>
<path d="M328.097 718.564C328.061 717.855 328.606 717.25 329.316 717.214L399.83 713.584C400.975 713.525 401.619 714.879 400.852 715.73L333.967 789.875C333.199 790.726 331.786 790.224 331.727 789.079L328.097 718.564Z" fill="#50778f" fill-rule="nonzero" opacity="1" stroke="#50778f" stroke-linecap="butt" stroke-linejoin="round" stroke-width="20.1022" vectornator:layerName="Прямоугольник 2"/>
</g>
<g opacity="1" vectornator:layerName="Группа 1">
<path d="M348.017 283.979C389.984 245.444 447.961 221.61 512 221.61C576.039 221.61 634.016 245.444 675.983 283.979" fill="none" opacity="1" stroke="#50778f" stroke-linecap="round" stroke-linejoin="round" stroke-width="40" vectornator:layerName="Овал 3"/>
<path d="M715.889 319.469C715.926 320.178 715.38 320.783 714.67 320.82L644.156 324.449C643.011 324.508 642.367 323.154 643.135 322.303L710.02 248.159C710.787 247.308 712.201 247.81 712.259 248.954L715.889 319.469Z" fill="#50778f" fill-rule="nonzero" opacity="1" stroke="#50778f" stroke-linecap="butt" stroke-linejoin="round" stroke-width="20.1022" vectornator:layerName="Прямоугольник 2"/>
</g>
</g>
</g>
<g id="Jar" vectornator:layerName="Jar">
<g opacity="1" vectornator:layerName="Группа 1">
<path d="M77.8769 615.873C81.8122 642.118 148.271 663.038 229.94 663.038C310.143 663.038 375.745 642.873 381.805 617.292C360.559 637.851 300.939 652.666 230.571 652.666C158.595 652.666 97.7963 637.164 77.8769 615.873Z" fill="#957156" fill-rule="nonzero" opacity="1" stroke="none"/>
<path d="M230.571 548.833C142.407 548.833 70.9362 572.055 70.9362 600.73C70.9362 605.995 73.3967 611.084 77.8769 615.873C97.7963 637.164 158.595 652.666 230.571 652.666C300.939 652.666 360.559 637.851 381.805 617.292C387.178 612.094 390.205 606.517 390.205 600.73C390.205 572.055 318.734 548.833 230.571 548.833Z" fill="#c69672" fill-rule="nonzero" opacity="1" stroke="none"/>
</g>
<g opacity="1" vectornator:layerName="Cup">
<g opacity="1" vectornator:layerName="Группа 1">
<path d="M70.2264 413.845C70.2264 474.128 88.1086 528.73 116.997 568.235C126.565 581.319 137.4 592.032 149.137 600.769C149.132 600.888 149.097 601.004 149.097 601.124C149.097 614.266 178.853 625.021 217.596 626.954C208.788 622.747 203.597 617.68 203.597 612.205C203.597 612.085 203.631 611.969 203.636 611.85C191.899 603.113 181.064 592.4 171.496 579.316C147.014 545.835 130.554 501.455 126.067 452.019C125.136 451.761 124.131 451.536 123.228 451.269C91.6337 441.968 71.2438 428.734 70.3842 413.845L70.2264 413.845Z" fill="#f5b484" fill-rule="nonzero" opacity="1" stroke="none"/>
<path d="M389.338 413.845C387.708 442.061 317.003 464.796 229.861 464.796C210.465 464.796 192.092 463.584 175.006 461.483C173.808 461.336 172.721 461.126 171.536 460.971C171.146 460.919 170.782 460.865 170.392 460.813C164.777 460.055 159.188 459.281 153.908 458.328C146.963 457.092 140.308 455.696 134.033 454.148C131.301 453.475 128.68 452.743 126.067 452.019C130.553 501.455 147.014 545.835 171.496 579.316C181.064 592.4 202.911 615.752 202.911 615.873C202.911 621.347 202.042 625.401 203.731 625.629C204.894 625.787 225.676 627.388 229.861 627.388C233.054 627.388 236.071 627.229 239.168 627.112C245.241 626.882 251.092 626.454 256.677 625.811C288.022 622.201 310.624 612.556 310.625 601.124C310.625 600.99 310.552 600.863 310.546 600.73C322.278 591.993 333.161 581.316 342.725 568.235C345.922 563.863 348.916 559.24 351.835 554.511C352.743 553.035 353.636 551.526 354.516 550.016C356.517 546.593 358.423 543.073 360.274 539.486C361.163 537.755 362.063 536.049 362.916 534.281C365.143 529.687 367.253 524.952 369.226 520.124C370.434 517.148 371.548 514.073 372.656 511.014C373.394 508.99 374.132 506.961 374.825 504.902C376.043 501.259 377.221 497.606 378.296 493.86C378.584 492.862 378.807 491.828 379.084 490.823C381.481 482.089 383.533 473.108 385.118 463.889C387.884 447.793 389.496 431.092 389.495 413.845L389.338 413.845Z" fill="#e59f6d" fill-rule="nonzero" opacity="1" stroke="none" vectornator:layerName="Кривая"/>
<path d="M70.2052 412.883C70.2052 384.208 141.676 360.962 229.84 360.962C318.003 360.962 389.474 384.208 389.474 412.883C389.474 441.557 318.003 464.803 229.84 464.803C141.676 464.803 70.2052 441.557 70.2052 412.883Z" fill="#fed7ab" fill-rule="nonzero" opacity="1" stroke="none" vectornator:layerName="Овал 8"/>
</g>
<path d="M383.446 413.851C383.446 387.898 314.794 366.859 230.108 366.859C145.422 366.859 76.77 387.898 76.77 413.851C76.77 439.804 145.422 460.843 230.108 460.843C314.794 460.843 383.446 439.804 383.446 413.851Z" fill="#ed6d48" fill-rule="nonzero" opacity="1" stroke="none" vectornator:layerName="Овал 6"/>
</g>
</g>
<g id="Jar-скопировать" vectornator:layerName="Jar скопировать">
<g opacity="1" vectornator:layerName="Группа 1">
<path d="M641.467 615.873C645.402 642.118 711.861 663.038 793.529 663.038C873.733 663.038 939.335 642.873 945.395 617.292C924.148 637.851 864.529 652.666 794.16 652.666C722.185 652.666 661.386 637.164 641.467 615.873Z" fill="#957156" fill-rule="nonzero" opacity="1" stroke="none"/>
<path d="M794.16 548.833C705.997 548.833 634.526 572.055 634.526 600.73C634.526 605.995 636.986 611.084 641.467 615.873C661.386 637.164 722.185 652.666 794.16 652.666C864.529 652.666 924.148 637.851 945.395 617.292C950.768 612.094 953.795 606.517 953.795 600.73C953.795 572.055 882.324 548.833 794.16 548.833Z" fill="#c69672" fill-rule="nonzero" opacity="1" stroke="none"/>
</g>
<g opacity="1" vectornator:layerName="Cup">
<g opacity="1" vectornator:layerName="Группа 1">
<path d="M633.816 413.845C633.816 474.128 651.698 528.73 680.586 568.235C690.154 581.319 700.989 592.032 712.726 600.769C712.721 600.888 712.687 601.004 712.687 601.124C712.687 614.266 742.443 625.021 781.186 626.954C772.377 622.747 767.187 617.68 767.187 612.205C767.187 612.085 767.221 611.969 767.226 611.85C755.489 603.113 744.654 592.4 735.086 579.316C710.603 545.835 694.143 501.455 689.657 452.019C688.726 451.761 687.721 451.536 686.817 451.269C655.223 441.968 634.833 428.734 633.974 413.845L633.816 413.845Z" fill="#f5b484" fill-rule="nonzero" opacity="1" stroke="none"/>
<path d="M952.927 413.845C951.298 442.061 880.593 464.796 793.451 464.796C774.055 464.796 755.682 463.584 738.596 461.483C737.398 461.336 736.311 461.126 735.126 460.971C734.735 460.919 734.371 460.865 733.982 460.813C728.366 460.055 722.778 459.281 717.498 458.328C710.552 457.092 703.898 455.696 697.623 454.148C694.891 453.475 692.27 452.743 689.657 452.019C694.143 501.455 710.603 545.835 735.086 579.316C744.654 592.4 766.501 615.752 766.501 615.873C766.501 621.347 765.631 625.401 767.321 625.629C768.484 625.787 789.266 627.388 793.451 627.388C796.644 627.388 799.661 627.229 802.757 627.112C808.83 626.882 814.682 626.454 820.267 625.811C851.611 622.201 874.214 612.556 874.214 601.124C874.214 600.99 874.141 600.863 874.135 600.73C885.868 591.993 896.75 581.316 906.315 568.235C909.512 563.863 912.506 559.24 915.424 554.511C916.333 553.035 917.226 551.526 918.106 550.016C920.107 546.593 922.013 543.073 923.863 539.486C924.752 537.755 925.653 536.049 926.506 534.281C928.732 529.687 930.842 524.952 932.815 520.124C934.023 517.148 935.138 514.073 936.246 511.014C936.984 508.99 937.722 506.961 938.415 504.902C939.633 501.259 940.811 497.606 941.885 493.86C942.173 492.862 942.396 491.828 942.674 490.823C945.071 482.089 947.123 473.108 948.708 463.889C951.474 447.793 953.085 431.092 953.085 413.845L952.927 413.845Z" fill="#e59f6d" fill-rule="nonzero" opacity="1" stroke="none" vectornator:layerName="Кривая"/>
<path d="M633.795 412.883C633.795 384.208 705.266 360.962 793.429 360.962C881.593 360.962 953.064 384.208 953.064 412.883C953.064 441.557 881.593 464.803 793.429 464.803C705.266 464.803 633.795 441.557 633.795 412.883Z" fill="#fed7ab" fill-rule="nonzero" opacity="1" stroke="none" vectornator:layerName="Овал 8"/>
</g>
<path d="M947.036 413.851C947.036 387.898 878.384 366.859 793.698 366.859C709.011 366.859 640.36 387.898 640.36 413.851C640.36 439.804 709.011 460.843 793.698 460.843C878.384 460.843 947.036 439.804 947.036 413.851Z" fill="#91d04b" fill-rule="nonzero" opacity="1" stroke="none" vectornator:layerName="Овал 6"/>
</g>
</g>
</svg>
